<mxfile host="app.diagrams.net" modified="2020-06-04T13:52:20.926Z" agent="5.0 (Macintosh; Intel Mac OS X 10_14_2) AppleWebKit/537.36 (KHTML, like Gecko) Chrome/83.0.4103.61 Safari/537.36" etag="u717Rhr7FX_b9PIV2GBT" version="13.1.6" type="github">
  <diagram id="2PnTl74UNKqRBuYetURC" name="逻辑架构">
    <mxGraphModel dx="815" dy="461" grid="1" gridSize="10" guides="1" tooltips="1" connect="1" arrows="1" fold="1" page="1" pageScale="1" pageWidth="827" pageHeight="1169" math="0" shadow="0">
      <root>
        <mxCell id="0" />
        <mxCell id="1" parent="0" />
        <mxCell id="m5zRSeu44S-avt-80JpC-1" value="权益接入方" style="rounded=0;whiteSpace=wrap;html=1;verticalAlign=top;fillColor=#d5e8d4;strokeColor=#82b366;fontSize=14;" vertex="1" parent="1">
          <mxGeometry x="74" y="500" width="636" height="90" as="geometry" />
        </mxCell>
        <mxCell id="m5zRSeu44S-avt-80JpC-2" value="权益发放渠道" style="rounded=0;whiteSpace=wrap;html=1;verticalAlign=top;fillColor=#dae8fc;strokeColor=#6c8ebf;fontSize=14;" vertex="1" parent="1">
          <mxGeometry x="74" y="30" width="680" height="110" as="geometry" />
        </mxCell>
        <mxCell id="m5zRSeu44S-avt-80JpC-4" value="B端权益中心" style="rounded=0;whiteSpace=wrap;html=1;verticalAlign=top;fillColor=#ffe6cc;strokeColor=#d79b00;fontSize=14;" vertex="1" parent="1">
          <mxGeometry x="74" y="150" width="546" height="340" as="geometry" />
        </mxCell>
        <mxCell id="m5zRSeu44S-avt-80JpC-5" value="权益接入注册" style="rounded=1;whiteSpace=wrap;html=1;verticalAlign=top;dashed=1;fontStyle=1" vertex="1" parent="1">
          <mxGeometry x="94" y="380" width="446" height="80" as="geometry" />
        </mxCell>
        <mxCell id="m5zRSeu44S-avt-80JpC-6" value="权益" style="rounded=1;whiteSpace=wrap;html=1;verticalAlign=top;dashed=1;fontStyle=1" vertex="1" parent="1">
          <mxGeometry x="94" y="270" width="446" height="100" as="geometry" />
        </mxCell>
        <mxCell id="m5zRSeu44S-avt-80JpC-7" value="发放渠道配置" style="rounded=1;whiteSpace=wrap;html=1;verticalAlign=top;dashed=1;fontStyle=1" vertex="1" parent="1">
          <mxGeometry x="94" y="190" width="446" height="70" as="geometry" />
        </mxCell>
        <mxCell id="m5zRSeu44S-avt-80JpC-8" value="权益消费方配置" style="rounded=0;whiteSpace=wrap;html=1;verticalAlign=middle;fontStyle=1" vertex="1" parent="1">
          <mxGeometry x="560" y="190" width="44" height="270" as="geometry" />
        </mxCell>
        <mxCell id="m5zRSeu44S-avt-80JpC-9" value="饿掌柜" style="rounded=0;whiteSpace=wrap;html=1;" vertex="1" parent="1">
          <mxGeometry x="94" y="70" width="90" height="40" as="geometry" />
        </mxCell>
        <mxCell id="m5zRSeu44S-avt-80JpC-10" value="新店任务" style="rounded=0;whiteSpace=wrap;html=1;" vertex="1" parent="1">
          <mxGeometry x="204" y="70" width="90" height="40" as="geometry" />
        </mxCell>
        <mxCell id="m5zRSeu44S-avt-80JpC-12" value="直推任务" style="rounded=0;whiteSpace=wrap;html=1;" vertex="1" parent="1">
          <mxGeometry x="314" y="70" width="90" height="40" as="geometry" />
        </mxCell>
        <mxCell id="m5zRSeu44S-avt-80JpC-13" value="商户综合分" style="rounded=0;whiteSpace=wrap;html=1;" vertex="1" parent="1">
          <mxGeometry x="424" y="70" width="90" height="40" as="geometry" />
        </mxCell>
        <mxCell id="m5zRSeu44S-avt-80JpC-14" value="B补策略中台" style="rounded=0;whiteSpace=wrap;html=1;" vertex="1" parent="1">
          <mxGeometry x="534" y="70" width="90" height="40" as="geometry" />
        </mxCell>
        <mxCell id="m5zRSeu44S-avt-80JpC-15" value="多收多卖" style="rounded=0;whiteSpace=wrap;html=1;" vertex="1" parent="1">
          <mxGeometry x="644" y="70" width="90" height="40" as="geometry" />
        </mxCell>
        <mxCell id="m5zRSeu44S-avt-80JpC-16" value="权益消费方" style="rounded=0;whiteSpace=wrap;html=1;verticalAlign=top;fillColor=#fff2cc;strokeColor=#d6b656;fontSize=14;" vertex="1" parent="1">
          <mxGeometry x="634" y="150" width="120" height="440" as="geometry" />
        </mxCell>
        <mxCell id="m5zRSeu44S-avt-80JpC-17" value="Woos工单" style="rounded=0;whiteSpace=wrap;html=1;" vertex="1" parent="1">
          <mxGeometry x="649" y="240" width="90" height="40" as="geometry" />
        </mxCell>
        <mxCell id="m5zRSeu44S-avt-80JpC-18" value="装修" style="rounded=0;whiteSpace=wrap;html=1;" vertex="1" parent="1">
          <mxGeometry x="649" y="290" width="90" height="40" as="geometry" />
        </mxCell>
        <mxCell id="m5zRSeu44S-avt-80JpC-19" value="短信" style="rounded=0;whiteSpace=wrap;html=1;" vertex="1" parent="1">
          <mxGeometry x="649" y="340" width="90" height="40" as="geometry" />
        </mxCell>
        <mxCell id="m5zRSeu44S-avt-80JpC-20" value="权益模板" style="rounded=0;whiteSpace=wrap;html=1;" vertex="1" parent="1">
          <mxGeometry x="120" y="300" width="75" height="25" as="geometry" />
        </mxCell>
        <mxCell id="m5zRSeu44S-avt-80JpC-22" value="权益发放" style="rounded=0;whiteSpace=wrap;html=1;" vertex="1" parent="1">
          <mxGeometry x="309.5" y="300" width="75" height="25" as="geometry" />
        </mxCell>
        <mxCell id="m5zRSeu44S-avt-80JpC-23" value="模板权限" style="rounded=0;whiteSpace=wrap;html=1;" vertex="1" parent="1">
          <mxGeometry x="184.5" y="217.5" width="70" height="25" as="geometry" />
        </mxCell>
        <mxCell id="m5zRSeu44S-avt-80JpC-24" value="渠道信息" style="rounded=0;whiteSpace=wrap;html=1;" vertex="1" parent="1">
          <mxGeometry x="278.5" y="217.5" width="70" height="25" as="geometry" />
        </mxCell>
        <mxCell id="m5zRSeu44S-avt-80JpC-25" value="" style="rounded=0;whiteSpace=wrap;html=1;" vertex="1" parent="1">
          <mxGeometry x="374.5" y="217.5" width="70" height="25" as="geometry" />
        </mxCell>
        <mxCell id="m5zRSeu44S-avt-80JpC-26" value="权益项" style="rounded=0;whiteSpace=wrap;html=1;" vertex="1" parent="1">
          <mxGeometry x="213.25" y="300" width="75" height="25" as="geometry" />
        </mxCell>
        <mxCell id="m5zRSeu44S-avt-80JpC-29" value="权益注册" style="rounded=0;whiteSpace=wrap;html=1;" vertex="1" parent="1">
          <mxGeometry x="184" y="410" width="71" height="25" as="geometry" />
        </mxCell>
        <mxCell id="m5zRSeu44S-avt-80JpC-31" value="权益发放" style="rounded=0;whiteSpace=wrap;html=1;" vertex="1" parent="1">
          <mxGeometry x="277.25" y="410" width="71" height="25" as="geometry" />
        </mxCell>
        <mxCell id="m5zRSeu44S-avt-80JpC-32" value="权益核对" style="rounded=0;whiteSpace=wrap;html=1;" vertex="1" parent="1">
          <mxGeometry x="309.5" y="335" width="75" height="25" as="geometry" />
        </mxCell>
        <mxCell id="m5zRSeu44S-avt-80JpC-33" value="RANK" style="rounded=0;whiteSpace=wrap;html=1;" vertex="1" parent="1">
          <mxGeometry x="95.75" y="530" width="90" height="40" as="geometry" />
        </mxCell>
        <mxCell id="m5zRSeu44S-avt-80JpC-34" value="CPC" style="rounded=0;whiteSpace=wrap;html=1;" vertex="1" parent="1">
          <mxGeometry x="204" y="530" width="90" height="40" as="geometry" />
        </mxCell>
        <mxCell id="m5zRSeu44S-avt-80JpC-35" value="短信" style="rounded=0;whiteSpace=wrap;html=1;" vertex="1" parent="1">
          <mxGeometry x="314" y="530" width="90" height="40" as="geometry" />
        </mxCell>
        <mxCell id="m5zRSeu44S-avt-80JpC-36" value="……" style="rounded=0;whiteSpace=wrap;html=1;" vertex="1" parent="1">
          <mxGeometry x="424" y="530" width="90" height="40" as="geometry" />
        </mxCell>
        <mxCell id="m5zRSeu44S-avt-80JpC-38" value="权益撤销" style="rounded=0;whiteSpace=wrap;html=1;" vertex="1" parent="1">
          <mxGeometry x="405.25" y="300" width="75" height="25" as="geometry" />
        </mxCell>
        <mxCell id="m5zRSeu44S-avt-80JpC-39" value="&amp;nbsp;预算管理" style="rounded=0;whiteSpace=wrap;html=1;" vertex="1" parent="1">
          <mxGeometry x="120" y="335" width="75" height="25" as="geometry" />
        </mxCell>
        <mxCell id="m5zRSeu44S-avt-80JpC-40" value="风控" style="rounded=0;whiteSpace=wrap;html=1;" vertex="1" parent="1">
          <mxGeometry x="213.25" y="335" width="75" height="25" as="geometry" />
        </mxCell>
      </root>
    </mxGraphModel>
  </diagram>
</mxfile>
